<?xml version="1.0" encoding="UTF-8" standalone="no"?>
<!DOCTYPE svg PUBLIC "-//W3C//DTD SVG 1.1//EN" "http://www.w3.org/Graphics/SVG/1.1/DTD/svg11.dtd">
<svg width="100%" height="100%" viewBox="0 0 1873 900" version="1.1" xmlns="http://www.w3.org/2000/svg" xmlns:xlink="http://www.w3.org/1999/xlink" xml:space="preserve" xmlns:serif="http://www.serif.com/" style="fill-rule:evenodd;clip-rule:evenodd;stroke-linecap:round;stroke-linejoin:round;stroke-miterlimit:1.5;">
    <g transform="matrix(2.66667,0,0,2.66667,-56.0281,-5.84393)">
        <g transform="matrix(0.925926,0,0,0.520833,0,0)">
            <rect id="アートボード1" x="0" y="0" width="1080" height="1920" style="fill:none;"/>
            <g id="アートボード11" serif:id="アートボード1">
                <g transform="matrix(1.30058,0,0,2.47091,-350.746,-103.832)">
                    <path d="M869.472,174.73C869.472,120.019 822.005,75.602 763.537,75.602L513.069,75.602C454.602,75.602 407.134,120.019 407.134,174.73C407.134,229.44 454.602,273.858 513.069,273.858L763.537,273.858C822.005,273.858 869.472,229.44 869.472,174.73Z" style="fill:rgb(121,121,121);stroke:black;stroke-width:1.6px;"/>
                </g>
                <g transform="matrix(1.17417,0,0,2.23075,-270.061,-61.8697)">
                    <path d="M869.472,174.73C869.472,120.019 822.005,75.602 763.537,75.602L513.069,75.602C454.602,75.602 407.134,120.019 407.134,174.73C407.134,229.44 454.602,273.858 513.069,273.858L763.537,273.858C822.005,273.858 869.472,229.44 869.472,174.73Z" style="fill:rgb(234,234,234);stroke:black;stroke-width:1.78px;"/>
                </g>
                <g transform="matrix(1.08,0,0,1.92,-59.3768,-527.589)">
                    <circle cx="244.584" cy="445.572" r="167.595" style="fill:rgb(121,121,121);stroke:black;stroke-width:2px;"/>
                </g>
                <g transform="matrix(0.952391,0,0,1.69314,-28.1658,-426.507)">
                    <circle cx="244.584" cy="445.572" r="167.595" style="fill:rgb(235,235,235);stroke:black;stroke-width:2.27px;"/>
                </g>
                <g transform="matrix(1.08,0,0,1.92,-5369.39,11.6917)">
                    <path d="M5429.4,156.357C5425.92,152.997 5424.12,148.437 5424.12,142.797C5424.12,137.397 5426.4,132.717 5430.84,128.997C5435.28,125.637 5441.28,123.837 5448.48,123.837C5452.56,123.837 5459.16,124.797 5467.92,126.597L5467.92,140.157L5465.52,140.157L5453.88,131.397C5451.6,130.197 5449.32,129.477 5447.4,129.477C5443.08,129.477 5439.48,130.557 5437.2,132.597C5435.28,134.517 5434.2,136.677 5434.2,139.077C5434.2,143.277 5436,146.397 5439.48,148.317C5440.32,148.797 5441.4,149.397 5442.6,149.877C5443.8,150.357 5445.12,151.077 5446.68,151.677C5457,156.237 5464.08,160.797 5467.56,164.997C5470.8,168.957 5472.6,174.237 5472.6,180.597C5472.6,188.397 5469.84,194.637 5464.68,199.077C5459.4,203.397 5451.84,205.557 5442,205.557C5439.36,205.557 5436.48,205.317 5433.48,204.837C5430.36,204.477 5426.88,203.877 5423.16,203.037L5423.16,189.597L5425.44,189.597L5437.44,198.237C5439.12,199.437 5440.8,200.037 5442.72,200.037C5454.12,199.557 5459.88,194.157 5459.88,184.077C5459.88,179.397 5458.44,175.437 5455.56,172.437C5453.64,170.637 5449.8,168.237 5444.64,165.837C5438.04,162.717 5432.88,159.477 5429.4,156.357Z" style="fill:rgb(51,51,51);fill-rule:nonzero;"/>
                    <path d="M5502,199.317L5508.96,199.317C5515.44,199.317 5520.36,197.637 5523.6,194.517C5526.84,191.277 5528.64,186.357 5528.64,180.237C5528.64,175.077 5527.2,170.637 5524.68,167.277C5522.04,164.157 5518.08,162.117 5512.92,161.637C5507.76,162.357 5504.16,162.717 5502,162.717L5502,199.317ZM5502,130.197L5502,158.277C5509.8,158.277 5515.92,156.237 5520.24,152.157C5523.24,149.397 5524.8,145.797 5524.8,141.597C5524.8,137.877 5523.36,134.997 5520.72,132.837C5518.2,131.157 5514.72,130.197 5510.28,130.197L5502,130.197ZM5490.36,143.037C5490.36,138.957 5489.88,135.717 5488.92,133.437C5487.72,131.037 5486.04,128.997 5484.24,127.797L5484.24,125.517L5512.32,125.517C5521.56,125.517 5528.28,126.957 5532.24,129.837C5535.96,132.357 5537.76,136.437 5537.76,141.357C5537.76,145.557 5535.96,149.517 5532.48,152.877C5528.52,156.477 5523.72,158.877 5518.08,159.837C5525.52,159.837 5531.16,161.517 5535.24,164.757C5539.68,168.237 5541.96,173.637 5541.96,180.717C5541.96,188.877 5538.96,194.997 5532.96,198.837C5527.56,202.197 5520.24,203.997 5511,203.997L5484.24,203.997L5484.24,201.597C5486.04,200.517 5487.72,198.477 5488.92,196.077C5489.88,193.797 5490.36,190.557 5490.36,186.477L5490.36,143.037Z" style="fill:rgb(51,51,51);fill-rule:nonzero;"/>
                </g>
            </g>
        </g>
    </g>
</svg>
