<?xml version="1.0" encoding="UTF-8" standalone="no"?>
<!DOCTYPE svg PUBLIC "-//W3C//DTD SVG 1.1//EN" "http://www.w3.org/Graphics/SVG/1.1/DTD/svg11.dtd">
<svg width="100%" height="100%" viewBox="0 0 1873 900" version="1.1" xmlns="http://www.w3.org/2000/svg" xmlns:xlink="http://www.w3.org/1999/xlink" xml:space="preserve" xmlns:serif="http://www.serif.com/" style="fill-rule:evenodd;clip-rule:evenodd;stroke-linecap:round;stroke-linejoin:round;stroke-miterlimit:1.5;">
    <g transform="matrix(2.66667,0,0,2.66667,-2722.69,-5.84393)">
        <g transform="matrix(0.925926,0,0,0.520833,1000,0)">
            <rect id="アートボード2" x="0" y="0" width="1080" height="1920" style="fill:none;"/>
            <g id="アートボード21" serif:id="アートボード2">
                <g transform="matrix(1.30058,0,0,2.47091,-350.746,-103.832)">
                    <path d="M869.472,174.73C869.472,120.019 822.005,75.602 763.537,75.602L513.069,75.602C454.602,75.602 407.134,120.019 407.134,174.73C407.134,229.44 454.602,273.858 513.069,273.858L763.537,273.858C822.005,273.858 869.472,229.44 869.472,174.73Z" style="fill:rgb(121,121,121);stroke:black;stroke-width:1.6px;"/>
                </g>
                <g transform="matrix(1.17417,0,0,2.23075,-270.061,-61.8697)">
                    <path d="M869.472,174.73C869.472,120.019 822.005,75.602 763.537,75.602L513.069,75.602C454.602,75.602 407.134,120.019 407.134,174.73C407.134,229.44 454.602,273.858 513.069,273.858L763.537,273.858C822.005,273.858 869.472,229.44 869.472,174.73Z" style="fill:rgb(234,234,234);stroke:black;stroke-width:1.78px;"/>
                </g>
                <g transform="matrix(1.08,0,0,1.92,-59.3768,-527.589)">
                    <circle cx="244.584" cy="445.572" r="167.595" style="fill:rgb(121,121,121);stroke:black;stroke-width:2px;"/>
                </g>
                <g transform="matrix(0.952391,0,0,1.69314,-28.1658,-426.507)">
                    <circle cx="244.584" cy="445.572" r="167.595" style="fill:rgb(235,235,235);stroke:black;stroke-width:2.27px;"/>
                </g>
                <g transform="matrix(1.08,0,0,1.92,-5369.39,11.6917)">
                    <path d="M5440.2,199.317L5447.16,199.317C5453.64,199.317 5458.56,197.637 5461.8,194.517C5465.04,191.277 5466.84,186.357 5466.84,180.237C5466.84,175.077 5465.4,170.637 5462.88,167.277C5460.24,164.157 5456.28,162.117 5451.12,161.637C5445.96,162.357 5442.36,162.717 5440.2,162.717L5440.2,199.317ZM5440.2,130.197L5440.2,158.277C5448,158.277 5454.12,156.237 5458.44,152.157C5461.44,149.397 5463,145.797 5463,141.597C5463,137.877 5461.56,134.997 5458.92,132.837C5456.4,131.157 5452.92,130.197 5448.48,130.197L5440.2,130.197ZM5428.56,143.037C5428.56,138.957 5428.08,135.717 5427.12,133.437C5425.92,131.037 5424.24,128.997 5422.44,127.797L5422.44,125.517L5450.52,125.517C5459.76,125.517 5466.48,126.957 5470.44,129.837C5474.16,132.357 5475.96,136.437 5475.96,141.357C5475.96,145.557 5474.16,149.517 5470.68,152.877C5466.72,156.477 5461.92,158.877 5456.28,159.837C5463.72,159.837 5469.36,161.517 5473.44,164.757C5477.88,168.237 5480.16,173.637 5480.16,180.717C5480.16,188.877 5477.16,194.997 5471.16,198.837C5465.76,202.197 5458.44,203.997 5449.2,203.997L5422.44,203.997L5422.44,201.597C5424.24,200.517 5425.92,198.477 5427.12,196.077C5428.08,193.797 5428.56,190.557 5428.56,186.477L5428.56,143.037Z" style="fill:rgb(51,51,51);fill-rule:nonzero;"/>
                    <path d="M5509.68,199.317L5516.64,199.317C5523.12,199.317 5528.04,197.637 5531.28,194.517C5534.52,191.277 5536.32,186.357 5536.32,180.237C5536.32,175.077 5534.88,170.637 5532.36,167.277C5529.72,164.157 5525.76,162.117 5520.6,161.637C5515.44,162.357 5511.84,162.717 5509.68,162.717L5509.68,199.317ZM5509.68,130.197L5509.68,158.277C5517.48,158.277 5523.6,156.237 5527.92,152.157C5530.92,149.397 5532.48,145.797 5532.48,141.597C5532.48,137.877 5531.04,134.997 5528.4,132.837C5525.88,131.157 5522.4,130.197 5517.96,130.197L5509.68,130.197ZM5498.04,143.037C5498.04,138.957 5497.56,135.717 5496.6,133.437C5495.4,131.037 5493.72,128.997 5491.92,127.797L5491.92,125.517L5520,125.517C5529.24,125.517 5535.96,126.957 5539.92,129.837C5543.64,132.357 5545.44,136.437 5545.44,141.357C5545.44,145.557 5543.64,149.517 5540.16,152.877C5536.2,156.477 5531.4,158.877 5525.76,159.837C5533.2,159.837 5538.84,161.517 5542.92,164.757C5547.36,168.237 5549.64,173.637 5549.64,180.717C5549.64,188.877 5546.64,194.997 5540.64,198.837C5535.24,202.197 5527.92,203.997 5518.68,203.997L5491.92,203.997L5491.92,201.597C5493.72,200.517 5495.4,198.477 5496.6,196.077C5497.56,193.797 5498.04,190.557 5498.04,186.477L5498.04,143.037Z" style="fill:rgb(51,51,51);fill-rule:nonzero;"/>
                </g>
            </g>
        </g>
    </g>
</svg>
