<?xml version="1.0" encoding="UTF-8" standalone="no"?>
<!DOCTYPE svg PUBLIC "-//W3C//DTD SVG 1.1//EN" "http://www.w3.org/Graphics/SVG/1.1/DTD/svg11.dtd">
<svg width="100%" height="100%" viewBox="0 0 1873 900" version="1.1" xmlns="http://www.w3.org/2000/svg" xmlns:xlink="http://www.w3.org/1999/xlink" xml:space="preserve" xmlns:serif="http://www.serif.com/" style="fill-rule:evenodd;clip-rule:evenodd;stroke-linecap:round;stroke-linejoin:round;stroke-miterlimit:1.5;">
    <g transform="matrix(2.66667,0,0,2.66667,-13389.4,-5.84393)">
        <g transform="matrix(0.925926,0,0,0.520833,5000,0)">
            <rect id="アートボード6" x="0" y="0" width="1080" height="1920" style="fill:none;"/>
            <g id="アートボード61" serif:id="アートボード6">
                <g transform="matrix(1.30058,0,0,2.47091,-350.746,-103.832)">
                    <path d="M869.472,174.73C869.472,120.019 822.005,75.602 763.537,75.602L513.069,75.602C454.602,75.602 407.134,120.019 407.134,174.73C407.134,229.44 454.602,273.858 513.069,273.858L763.537,273.858C822.005,273.858 869.472,229.44 869.472,174.73Z" style="fill:rgb(121,121,121);stroke:black;stroke-width:1.6px;"/>
                </g>
                <g transform="matrix(1.17417,0,0,2.23075,-270.061,-58.8415)">
                    <path d="M869.472,174.73C869.472,120.019 822.005,75.602 763.537,75.602L513.069,75.602C454.602,75.602 407.134,120.019 407.134,174.73C407.134,229.44 454.602,273.858 513.069,273.858L763.537,273.858C822.005,273.858 869.472,229.44 869.472,174.73Z" style="fill:rgb(234,234,234);stroke:black;stroke-width:1.78px;"/>
                </g>
                <g transform="matrix(1.08,0,0,1.92,-59.3768,-527.589)">
                    <circle cx="244.584" cy="445.572" r="167.595" style="fill:rgb(121,121,121);stroke:black;stroke-width:2px;"/>
                </g>
                <g transform="matrix(0.952391,0,0,1.69314,-28.1658,-426.507)">
                    <circle cx="244.584" cy="445.572" r="167.595" style="fill:rgb(235,235,235);stroke:black;stroke-width:2.27px;"/>
                </g>
                <g transform="matrix(1.08,0,0,1.92,-5412.96,14.6047)">
                    <path d="M5440.2,199.317L5447.16,199.317C5453.64,199.317 5458.56,197.637 5461.8,194.517C5465.04,191.277 5466.84,186.357 5466.84,180.237C5466.84,175.077 5465.4,170.637 5462.88,167.277C5460.24,164.157 5456.28,162.117 5451.12,161.637C5445.96,162.357 5442.36,162.717 5440.2,162.717L5440.2,199.317ZM5440.2,130.197L5440.2,158.277C5448,158.277 5454.12,156.237 5458.44,152.157C5461.44,149.397 5463,145.797 5463,141.597C5463,137.877 5461.56,134.997 5458.92,132.837C5456.4,131.157 5452.92,130.197 5448.48,130.197L5440.2,130.197ZM5428.56,143.037C5428.56,138.957 5428.08,135.717 5427.12,133.437C5425.92,131.037 5424.24,128.997 5422.44,127.797L5422.44,125.517L5450.52,125.517C5459.76,125.517 5466.48,126.957 5470.44,129.837C5474.16,132.357 5475.96,136.437 5475.96,141.357C5475.96,145.557 5474.16,149.517 5470.68,152.877C5466.72,156.477 5461.92,158.877 5456.28,159.837C5463.72,159.837 5469.36,161.517 5473.44,164.757C5477.88,168.237 5480.16,173.637 5480.16,180.717C5480.16,188.877 5477.16,194.997 5471.16,198.837C5465.76,202.197 5458.44,203.997 5449.2,203.997L5422.44,203.997L5422.44,201.597C5424.24,200.517 5425.92,198.477 5427.12,196.077C5428.08,193.797 5428.56,190.557 5428.56,186.477L5428.56,143.037Z" style="fill:rgb(51,51,51);fill-rule:nonzero;"/>
                    <path d="M5514.12,186.477L5514.12,131.157L5506.68,131.157C5504.16,131.157 5502.12,131.757 5500.56,132.957L5491.32,141.237L5488.92,141.237L5488.92,125.517L5551.08,125.517L5551.08,141.237L5548.68,141.237L5539.44,132.957C5538,131.757 5535.84,131.157 5533.44,131.157L5525.88,131.157L5525.88,186.477C5525.88,190.557 5526.36,193.797 5527.32,196.077C5528.52,198.477 5530.08,200.517 5532,201.597L5532,203.997L5508.12,203.997L5508.12,201.597C5509.92,200.517 5511.6,198.477 5512.8,196.077C5513.64,193.797 5514.12,190.557 5514.12,186.477Z" style="fill:rgb(51,51,51);fill-rule:nonzero;"/>
                    <path d="M5615.76,186.477L5615.76,185.877L5572.08,141.117L5572.08,186.477C5572.08,189.837 5572.44,192.717 5573.04,194.997C5573.64,197.277 5575.2,199.557 5577.36,201.597L5577.36,203.997L5559.84,203.997L5559.84,201.597C5562,199.557 5563.56,197.277 5564.16,194.997C5564.76,192.717 5565.12,189.837 5565.12,186.477L5565.12,143.037C5565.12,139.677 5564.76,136.677 5564.16,134.517C5563.56,132.117 5562,129.957 5559.84,127.797L5559.84,125.517L5573.76,125.517L5615.76,168.957L5615.76,143.037C5615.76,139.677 5615.4,136.677 5614.8,134.517C5614.2,132.117 5612.64,129.957 5610.48,127.797L5610.48,125.517L5628,125.517L5628,127.797C5625.84,129.957 5624.28,132.117 5623.68,134.517C5623.08,136.677 5622.72,139.677 5622.72,143.037L5622.72,186.477C5622.72,189.837 5623.08,192.717 5623.68,194.997C5624.28,197.277 5625.84,199.557 5628,201.597L5628,203.997L5610.48,203.997L5610.48,201.597C5612.64,199.557 5614.2,197.277 5614.8,194.997C5615.4,192.717 5615.76,189.837 5615.76,186.477Z" style="fill:rgb(51,51,51);fill-rule:nonzero;"/>
                </g>
            </g>
        </g>
    </g>
</svg>
