<?xml version="1.0" encoding="UTF-8" standalone="no"?>
<!DOCTYPE svg PUBLIC "-//W3C//DTD SVG 1.1//EN" "http://www.w3.org/Graphics/SVG/1.1/DTD/svg11.dtd">
<svg width="100%" height="100%" viewBox="0 0 1873 900" version="1.1" xmlns="http://www.w3.org/2000/svg" xmlns:xlink="http://www.w3.org/1999/xlink" xml:space="preserve" xmlns:serif="http://www.serif.com/" style="fill-rule:evenodd;clip-rule:evenodd;stroke-linecap:round;stroke-linejoin:round;stroke-miterlimit:1.5;">
    <g transform="matrix(2.66667,0,0,2.66667,-8056.03,-5.84393)">
        <g transform="matrix(0.925926,0,0,0.520833,3000,0)">
            <rect id="アートボード4" x="0" y="0" width="1080" height="1920" style="fill:none;"/>
            <g id="アートボード41" serif:id="アートボード4">
                <g transform="matrix(1.30058,0,0,2.47091,-350.746,-103.832)">
                    <path d="M869.472,174.73C869.472,120.019 822.005,75.602 763.537,75.602L513.069,75.602C454.602,75.602 407.134,120.019 407.134,174.73C407.134,229.44 454.602,273.858 513.069,273.858L763.537,273.858C822.005,273.858 869.472,229.44 869.472,174.73Z" style="fill:rgb(121,121,121);stroke:black;stroke-width:1.6px;"/>
                </g>
                <g transform="matrix(1.17417,0,0,2.23075,-270.061,-61.8697)">
                    <path d="M869.472,174.73C869.472,120.019 822.005,75.602 763.537,75.602L513.069,75.602C454.602,75.602 407.134,120.019 407.134,174.73C407.134,229.44 454.602,273.858 513.069,273.858L763.537,273.858C822.005,273.858 869.472,229.44 869.472,174.73Z" style="fill:rgb(234,234,234);stroke:black;stroke-width:1.78px;"/>
                </g>
                <g transform="matrix(1.08,0,0,1.92,-59.3768,-527.589)">
                    <circle cx="244.584" cy="445.572" r="167.595" style="fill:rgb(121,121,121);stroke:black;stroke-width:2px;"/>
                </g>
                <g transform="matrix(0.952391,0,0,1.69314,-28.1658,-426.507)">
                    <circle cx="244.584" cy="445.572" r="167.595" style="fill:rgb(235,235,235);stroke:black;stroke-width:2.27px;"/>
                </g>
                <g transform="matrix(1.08,0,0,1.92,-5369.39,11.6917)">
                    <path d="M5468.4,203.997L5468.4,201.597C5470.2,200.517 5471.88,198.477 5473.08,196.077C5474.04,193.797 5474.4,190.557 5474.4,186.477L5474.4,162.477L5440.2,162.477L5440.2,186.477C5440.2,190.557 5440.68,193.797 5441.64,196.077C5442.84,198.477 5444.4,200.517 5446.32,201.597L5446.32,203.997L5422.44,203.997L5422.44,201.597C5424.24,200.517 5425.92,198.477 5427.12,196.077C5428.08,193.797 5428.56,190.557 5428.56,186.477L5428.56,143.037C5428.56,138.957 5428.08,135.717 5427.12,133.437C5425.92,131.037 5424.24,128.997 5422.44,127.797L5422.44,125.517L5446.32,125.517L5446.32,127.797C5444.4,128.997 5442.84,131.037 5441.64,133.437C5440.68,135.717 5440.2,138.957 5440.2,143.037L5440.2,156.837L5474.4,156.837L5474.4,143.037C5474.4,138.957 5474.04,135.717 5473.08,133.437C5471.88,131.037 5470.2,128.997 5468.4,127.797L5468.4,125.517L5492.28,125.517L5492.28,127.797C5490.36,128.997 5488.8,131.037 5487.6,133.437C5486.64,135.717 5486.16,138.957 5486.16,143.037L5486.16,186.477C5486.16,190.557 5486.64,193.797 5487.6,196.077C5488.8,198.477 5490.36,200.517 5492.28,201.597L5492.28,203.997L5468.4,203.997Z" style="fill:rgb(51,51,51);fill-rule:nonzero;"/>
                    <path d="M5511.12,143.037C5511.12,138.957 5510.64,135.717 5509.8,133.437C5508.6,131.037 5506.92,128.997 5505.12,127.797L5505.12,125.517L5529,125.517L5529,127.797C5527.08,128.997 5525.52,131.037 5524.32,133.437C5523.36,135.717 5522.88,138.957 5522.88,143.037L5522.88,199.197C5522.88,209.397 5520.6,216.957 5516.28,221.877C5512.32,226.317 5507.16,228.477 5501.04,228.477C5497.08,228.477 5492.04,227.517 5486.28,225.957L5486.28,212.397L5488.68,212.397L5500.56,221.157C5501.64,221.877 5503.2,222.357 5504.64,222.357C5508.96,222.357 5511.12,215.997 5511.12,203.157L5511.12,143.037Z" style="fill:rgb(51,51,51);fill-rule:nonzero;"/>
                </g>
            </g>
        </g>
    </g>
</svg>
