<?xml version="1.0" encoding="UTF-8" standalone="no"?>
<!DOCTYPE svg PUBLIC "-//W3C//DTD SVG 1.1//EN" "http://www.w3.org/Graphics/SVG/1.1/DTD/svg11.dtd">
<svg width="100%" height="100%" viewBox="0 0 1873 900" version="1.1" xmlns="http://www.w3.org/2000/svg" xmlns:xlink="http://www.w3.org/1999/xlink" xml:space="preserve" xmlns:serif="http://www.serif.com/" style="fill-rule:evenodd;clip-rule:evenodd;stroke-linecap:round;stroke-linejoin:round;stroke-miterlimit:1.5;">
    <g transform="matrix(2.66667,0,0,2.66667,-10722.7,-5.84393)">
        <g transform="matrix(0.925926,0,0,0.520833,4000,0)">
            <rect id="アートボード5" x="0" y="0" width="1080" height="1920" style="fill:none;"/>
            <g id="アートボード51" serif:id="アートボード5">
                <g transform="matrix(1.30058,0,0,2.47091,-350.746,-103.832)">
                    <path d="M869.472,174.73C869.472,120.019 822.005,75.602 763.537,75.602L513.069,75.602C454.602,75.602 407.134,120.019 407.134,174.73C407.134,229.44 454.602,273.858 513.069,273.858L763.537,273.858C822.005,273.858 869.472,229.44 869.472,174.73Z" style="fill:rgb(121,121,121);stroke:black;stroke-width:1.6px;"/>
                </g>
                <g transform="matrix(1.17417,0,0,2.23075,-270.061,-61.8697)">
                    <path d="M869.472,174.73C869.472,120.019 822.005,75.602 763.537,75.602L513.069,75.602C454.602,75.602 407.134,120.019 407.134,174.73C407.134,229.44 454.602,273.858 513.069,273.858L763.537,273.858C822.005,273.858 869.472,229.44 869.472,174.73Z" style="fill:rgb(234,234,234);stroke:black;stroke-width:1.78px;"/>
                </g>
                <g transform="matrix(1.08,0,0,1.92,-59.3768,-527.589)">
                    <circle cx="244.584" cy="445.572" r="167.595" style="fill:rgb(121,121,121);stroke:black;stroke-width:2px;"/>
                </g>
                <g transform="matrix(0.952391,0,0,1.69314,-28.1658,-426.507)">
                    <circle cx="244.584" cy="445.572" r="167.595" style="fill:rgb(235,235,235);stroke:black;stroke-width:2.27px;"/>
                </g>
                <g transform="matrix(1.08,0,0,1.92,-5369.39,11.6917)">
                    <path d="M5461.2,205.557C5445.96,205.557 5435.04,200.757 5428.56,190.917C5424.48,184.557 5422.44,176.397 5422.44,166.557C5422.44,153.717 5425.92,143.157 5433,135.237C5439.96,127.677 5450.04,123.837 5462.76,123.837C5468.4,123.837 5475.12,124.797 5482.68,126.357L5482.68,139.917L5480.28,139.917L5468.4,131.277C5466.48,130.077 5464.2,129.477 5461.8,129.477C5453.52,129.477 5447.04,132.597 5442.6,138.717C5438.16,145.437 5435.76,154.197 5435.76,164.877C5435.76,173.517 5437.32,180.717 5439.84,186.357C5444.16,195.477 5451.6,200.037 5461.68,200.037C5464.2,200.037 5466.6,199.437 5468.52,198.237L5480.4,189.597L5482.8,189.597L5482.8,203.037C5475,204.597 5467.8,205.557 5461.2,205.557Z" style="fill:rgb(51,51,51);fill-rule:nonzero;"/>
                    <path d="M5493.96,164.757C5493.96,154.557 5496.24,145.797 5500.68,138.717C5507.28,128.877 5516.76,123.837 5528.88,123.837C5540.88,123.837 5550.48,128.877 5556.96,138.717C5561.4,145.797 5563.8,154.557 5563.8,164.757C5563.8,174.957 5561.4,183.717 5556.96,190.797C5550.48,200.637 5540.88,205.557 5528.88,205.557C5516.76,205.557 5507.28,200.637 5500.68,190.797C5496.24,183.717 5493.96,174.957 5493.96,164.757ZM5550.48,164.757C5550.24,154.437 5548.44,146.277 5545.32,140.517C5541.24,133.317 5535.6,129.837 5528.04,129.957C5520.6,130.077 5514.96,133.917 5511.24,141.237C5508.48,146.997 5507.04,155.397 5507.28,165.717C5507.4,176.037 5509.2,184.197 5512.32,189.957C5516.28,197.037 5522.04,200.637 5529.6,200.517C5537.04,200.397 5542.68,196.437 5546.28,189.237C5549.16,183.357 5550.6,175.077 5550.48,164.757Z" style="fill:rgb(51,51,51);fill-rule:nonzero;"/>
                </g>
            </g>
        </g>
    </g>
</svg>
