<?xml version="1.0" encoding="UTF-8" standalone="no"?>
<!DOCTYPE svg PUBLIC "-//W3C//DTD SVG 1.1//EN" "http://www.w3.org/Graphics/SVG/1.1/DTD/svg11.dtd">
<svg width="100%" height="100%" viewBox="0 0 1873 900" version="1.1" xmlns="http://www.w3.org/2000/svg" xmlns:xlink="http://www.w3.org/1999/xlink" xml:space="preserve" xmlns:serif="http://www.serif.com/" style="fill-rule:evenodd;clip-rule:evenodd;stroke-linecap:round;stroke-linejoin:round;stroke-miterlimit:1.5;">
    <g transform="matrix(2.66667,0,0,2.66667,-5389.36,-5.84393)">
        <g transform="matrix(0.925926,0,0,0.520833,2000,0)">
            <rect id="アートボード3" x="0" y="0" width="1080" height="1920" style="fill:none;"/>
            <g id="アートボード31" serif:id="アートボード3">
                <g transform="matrix(1.30058,0,0,2.47091,-350.746,-103.832)">
                    <path d="M869.472,174.73C869.472,120.019 822.005,75.602 763.537,75.602L513.069,75.602C454.602,75.602 407.134,120.019 407.134,174.73C407.134,229.44 454.602,273.858 513.069,273.858L763.537,273.858C822.005,273.858 869.472,229.44 869.472,174.73Z" style="fill:rgb(121,121,121);stroke:black;stroke-width:1.6px;"/>
                </g>
                <g transform="matrix(1.17417,0,0,2.23075,-270.061,-61.8697)">
                    <path d="M869.472,174.73C869.472,120.019 822.005,75.602 763.537,75.602L513.069,75.602C454.602,75.602 407.134,120.019 407.134,174.73C407.134,229.44 454.602,273.858 513.069,273.858L763.537,273.858C822.005,273.858 869.472,229.44 869.472,174.73Z" style="fill:rgb(234,234,234);stroke:black;stroke-width:1.78px;"/>
                </g>
                <g transform="matrix(1.08,0,0,1.92,-59.3768,-527.589)">
                    <circle cx="244.584" cy="445.572" r="167.595" style="fill:rgb(121,121,121);stroke:black;stroke-width:2px;"/>
                </g>
                <g transform="matrix(0.952391,0,0,1.69314,-28.1658,-426.507)">
                    <circle cx="244.584" cy="445.572" r="167.595" style="fill:rgb(235,235,235);stroke:black;stroke-width:2.27px;"/>
                </g>
                <g transform="matrix(1.08,0,0,1.92,-5412.96,14.6047)">
                    <path d="M5485.44,177.237C5485.44,186.237 5484.24,192.357 5481.96,195.957C5477.52,202.317 5469,205.557 5456.4,205.557C5446.56,205.557 5439.24,203.637 5434.92,199.797C5430.72,195.597 5428.56,189.237 5428.56,181.077L5428.56,143.037C5428.56,138.957 5428.08,135.717 5427.12,133.437C5425.92,131.037 5424.24,128.997 5422.44,127.797L5422.44,125.517L5446.32,125.517L5446.32,127.797C5444.4,128.997 5442.84,131.037 5441.64,133.437C5440.68,135.717 5440.2,138.957 5440.2,143.037L5440.2,177.957C5440.2,185.757 5441.64,191.397 5444.28,194.877C5447.28,198.237 5452.2,200.037 5458.8,200.037C5466.36,200.037 5471.88,197.157 5474.88,191.637C5476.08,189.477 5476.8,184.917 5476.8,178.317L5476.8,143.037C5476.8,139.077 5476.44,135.957 5475.72,133.677C5475.12,131.757 5473.68,129.837 5471.52,127.797L5471.52,125.517L5490.72,125.517L5490.72,127.797C5488.68,129.837 5487.12,131.757 5486.52,133.677C5485.8,135.957 5485.44,139.077 5485.44,143.037L5485.44,177.237Z" style="fill:rgb(51,51,51);fill-rule:nonzero;"/>
                    <path d="M5524.56,186.477L5524.56,131.157L5517.12,131.157C5514.6,131.157 5512.56,131.757 5511,132.957L5501.76,141.237L5499.36,141.237L5499.36,125.517L5561.52,125.517L5561.52,141.237L5559.12,141.237L5549.88,132.957C5548.44,131.757 5546.28,131.157 5543.88,131.157L5536.32,131.157L5536.32,186.477C5536.32,190.557 5536.8,193.797 5537.76,196.077C5538.96,198.477 5540.52,200.517 5542.44,201.597L5542.44,203.997L5518.56,203.997L5518.56,201.597C5520.36,200.517 5522.04,198.477 5523.24,196.077C5524.08,193.797 5524.56,190.557 5524.56,186.477Z" style="fill:rgb(51,51,51);fill-rule:nonzero;"/>
                    <path d="M5617.92,174.477C5617.92,170.037 5617.44,166.557 5616.6,164.277C5615.64,162.117 5614.32,160.437 5612.64,159.237L5612.64,156.837L5634.96,156.837L5634.96,159.237C5633.28,160.437 5631.96,162.117 5631.12,164.277C5630.16,166.557 5629.68,170.037 5629.68,174.477L5629.68,202.917C5621.28,204.597 5613.36,205.557 5606.28,205.557C5594.88,205.557 5586,202.197 5579.64,195.597C5573.4,188.637 5570.28,178.917 5570.28,166.557C5570.28,153.717 5573.76,143.157 5580.84,135.237C5587.8,127.677 5597.88,123.837 5610.6,123.837C5616.12,123.837 5622.72,124.797 5630.52,126.357L5630.52,139.917L5628.12,139.917L5616.24,131.277C5614.32,130.077 5612.04,129.477 5609.64,129.477C5601.36,129.477 5594.88,132.597 5590.44,138.717C5586,145.557 5583.6,154.317 5583.6,164.877C5583.6,176.397 5586,185.397 5590.44,191.517C5595,197.037 5602.08,199.917 5611.68,199.917C5612.76,199.917 5614.92,199.677 5617.92,199.437L5617.92,174.477Z" style="fill:rgb(51,51,51);fill-rule:nonzero;"/>
                </g>
            </g>
        </g>
    </g>
</svg>
